# xmcd CD database file
# Copyright (C) 1993-1998 Ti Kan
#
# Track frame offsets:
#	150
#	16657
#	27210
#	40920
#	54420
#	69557
#	86180
#	93925
#	107027
#	115130
#	129132
#	142235
#	157900
#	172480
#	188165
#	201057
#	214960
#	228075
#	243755
#	256930
#
# Disc length: 3610 seconds
#
# Revision: 1
# Processed by: cddbd v1.4b41PL1 Copyright (c) Steve Scherf et al.
# Submitted via: NotifyCDPlayer(CDDB) 1.51.3
#
DISCID=0d0e1814
DTITLE=Billie Holiday - 
DYEAR=1900
DGENRE=
TTITLE0=Stormy Weather
TTITLE1=T'Aint Nobody's Bizness If I Go
TTITLE2=What A Little Moonlight Can Do
TTITLE3=Speading Rythm Around
TTITLE4=Tenderly
TTITLE5=Autumn In New York
TTITLE6=Them There Eyes
TTITLE7=Billie's Blues
TTITLE8=Miss Brown To You
TTITLE9=Night and Day
TTITLE10=I Only Have Eyes For You
TTITLE11=Blue Moon
TTITLE12=Loverman
TTITLE13=Fine and Mellow
TTITLE14=Let's Dream In The Moonlight
TTITLE15=Strange Fruit
TTITLE16=My Man
TTITLE17=Solitude
TTITLE18=Love For Sale
TTITLE19=Georgia On My Mind
EXTD=
EXTT0=
EXTT1=
EXTT2=
EXTT3=
EXTT4=
EXTT5=
EXTT6=
EXTT7=
EXTT8=
EXTT9=
EXTT10=
EXTT11=
EXTT12=
EXTT13=
EXTT14=
EXTT15=
EXTT16=
EXTT17=
EXTT18=
EXTT19=
PLAYORDER=
